<?xml version="1.0" encoding="utf-8"?>
<!-- Generator: Adobe Illustrator 23.0.0, SVG Export Plug-In . SVG Version: 6.00 Build 0)  -->
<svg version="1.1" id="Layer_1" xmlns="http://www.w3.org/2000/svg" xmlns:xlink="http://www.w3.org/1999/xlink" x="0px" y="0px"
	 width="800px" height="605.3px" viewBox="0 0 800 605.3" style="enable-background:new 0 0 800 605.3;" xml:space="preserve">
<style type="text/css">
	.st0{fill:#007BFF;stroke:#211F44;stroke-width:2;stroke-miterlimit:10;}
	.st1{opacity:0.2;fill:#0B2252;}
	.st2{fill:url(#SVGID_1_);}
	.st3{fill:#0B2252;}
	.st4{fill:url(#SVGID_2_);}
	.st5{fill:#101111;}
	.st6{fill:#007BFF;}
	.st7{fill:#FF9F91;}
	.st8{fill:#FFAA9D;}
	.st9{fill:#14336A;}
	.st10{fill:#2B3872;}
	.st11{fill:#0B57D0;stroke:#211F44;stroke-width:2;stroke-miterlimit:10;}
	.st12{fill:#4DA8FF;stroke:#211F44;stroke-width:2;stroke-miterlimit:10;}
	.st13{fill:#0B2252;opacity:0.35;}
</style>
<g>
	<!-- box depth/side panel -->
	<polygon class="st11" points="340,395 395,360 395,555 340,590"/>
	<!-- left open flap -->
	<polygon class="st12" points="140,395 240,395 88,328"/>
	<!-- right open flap -->
	<polygon class="st12" points="240,395 340,395 398,333"/>
	<!-- box front face -->
	<rect class="st0" x="140" y="395" width="200" height="195"/>
	<!-- packing tape strip -->
	<rect x="226" y="410" width="14" height="180" fill="#FFFFFF" opacity="0.22"/>
	<!-- dark interior / empty box shadow -->
	<ellipse class="st13" cx="240" cy="393" rx="95" ry="16"/>
	<!-- front drooping flap -->
	<polygon class="st12" points="195,395 290,395 242,442"/>
</g>
<ellipse class="st1" cx="390.6" cy="585.6" rx="390.6" ry="11.1"/>
<g>
	
		<linearGradient id="SVGID_1_" gradientUnits="userSpaceOnUse" x1="5363.6987" y1="548.3779" x2="5430.1011" y2="548.3779" gradientTransform="matrix(1 0 0 1 -4892.647 0)">
		<stop  offset="0" style="stop-color:#FFAA9D"/>
		<stop  offset="0.9662" style="stop-color:#FF9F91"/>
	</linearGradient>
	<polygon class="st2" points="471.1,540.5 471.1,559.2 535.1,559.2 537.5,537.6 	"/>
	<path class="st3" d="M471.1,559.2l-12,13.5c-1,1.1-1,2.6-0.4,3.8c0.5,0.9,1.5,1.6,2.8,1.6h69.1c0.6,0,1.2-0.2,1.6-0.6
		c0.4-0.4,0.7-0.9,0.8-1.6l2.1-16.7H471.1z"/>
	
		<linearGradient id="SVGID_2_" gradientUnits="userSpaceOnUse" x1="-424.8233" y1="548.3589" x2="-357.5445" y2="548.3589" gradientTransform="matrix(-1 0 0 1 224.6386 0)">
		<stop  offset="0" style="stop-color:#FFAA9D"/>
		<stop  offset="0.9662" style="stop-color:#FF9F91"/>
	</linearGradient>
	<polygon class="st4" points="647.6,540.4 649.5,559.2 585.4,559.2 582.2,537.5 	"/>
	<path class="st3" d="M649.5,559.2l12,13.5c1,1.1,1,2.6,0.4,3.8c-0.5,0.9-1.5,1.6-2.8,1.6h-69.1c-0.6,0-1.2-0.2-1.6-0.6
		c-0.4-0.4-0.7-0.9-0.8-1.6l-2.1-16.7H649.5z"/>
	<path class="st5" d="M503.2,213.8c0,0-24.5,83.6-29.1,147.2c-4.5,63.6-4.3,181.6-4.3,181.6h68.5c0,0,16-161.2,22.4-161.7
		c6.4-0.6,19.1,161.7,19.1,161.7h71.6c0,0-16.1-277.5-41.7-328.8H503.2z"/>
	<path class="st6" d="M610,88c-13-9.5-34.4-15.1-54.3-15.1c-18.4,0-36.9,5.9-52.9,13.4c-22.7,10.7-21.8,155-17.8,164.9
		c6.7,16.6,131.6,16.8,141.5-1.6C632.4,238.7,623.9,98.1,610,88z"/>
	<g>
		<path class="st7" d="M547.6,76.3c1.2-6.1,1-12.4,1.5-16.2c0,0,15.7-0.3,15.7-0.1c0.2,2,1.3,14.7,1.4,16.2
			C566.7,82,546.4,82.7,547.6,76.3z"/>
		<path class="st8" d="M576.9,29.7c-2-1.9-13.7-2.9-19.3-2.9c-2.3,0-6-2.1-9.2-1.8c-4.7,0.5-8.8,3.6-10,4.7c-2,1.9-0.1,22.8,1,26.8
			c1.2,4,6.8,14.2,18.3,14.2s17.1-10.2,18.3-14.2C577.1,52.5,579,31.6,576.9,29.7z"/>
		<path class="st9" d="M577.8,27.6c1.7-0.9,4.3-9.6-4.4-10.9c0,0,2.6-8.1-7.1-7.8c-9.6,0.3-26.8,5.6-28.9,20.3
			c-2.1,14.7,0.3,26.7,2.3,32.7c1,3,6.4,11.9,17.8,11.9c11.5,0,16.2-9,17.1-12c1.6-4.9,4.8-13.6,3.9-24.6c0.6-0.1,1.3-0.3,1.8-0.6
			C587,33.3,576.1,28.5,577.8,27.6z M568.1,59.9c-4.5-2-6.2-3-10.6-3c-4.4,0-5.9,0.4-10.3,2.4c-5,2.2-9.7-17.3-5.6-23
			c4.1-5.7,5.5-6,6.8-10.4c0,0,7.3,6.5,14.9,5.7c0,0,2.4-0.5,2.2-3.6c0,0,2.7,4.3,8.2,8.2C576.8,38.7,573,62.2,568.1,59.9z"/>
	</g>
	<g>
		<path class="st8" d="M365.4,78.5c0,0-3.8-16.8-8.8-22.7c-4-4.8-4.9,3.8-4.9,3.8s-21-3.8-32.8-6.7c-2.7-0.7-4.7,2.6-2.9,4.7
			c7,8.1,19,19.9,29.8,21H365.4z"/>
		<path class="st6" d="M541.8,88.6c0,0-8.7-4.4-29-2.4c-20.3,2.1-43.7,21.9-82.9,19.5c-39.3-2.4-63.8-28.6-63.8-28.6h-25.7
			c0,0,7.8,95.9,91.8,94.5c84-1.4,116.9-13,116.9-13L541.8,88.6z"/>
	</g>
	<g>
		<path class="st8" d="M749.9,78.4c0,0,3.8-16.8,8.8-22.7c4-4.8,4.9,3.8,4.9,3.8s21-3.8,32.8-6.7c2.7-0.7,4.7,2.6,2.9,4.7
			c-7,8.1-19,19.9-29.8,21H749.9z"/>
		<path class="st6" d="M573.5,88.5c0,0,8.7-4.4,29-2.4c20.3,2.1,43.7,21.9,82.9,19.5c39.3-2.4,63.8-28.6,63.8-28.6h25.7
			c0,0-7.8,95.9-91.8,94.5c-84-1.4-116.9-13-116.9-13L573.5,88.5z"/>
	</g>
</g>
<g>
	<path class="st10" d="M280.9,291.9h6.1c0.9,0,1.6,0.7,1.6,1.6l0,0c0,0.9-0.7,1.6-1.6,1.6h-6.1c-0.9,0-1.6-0.7-1.6-1.6
		c0-0.4,0.2-0.8,0.5-1.1C280.1,292.1,280.5,291.9,280.9,291.9z"/>
	<path class="st10" d="M303.8,293.5c0,0.4-0.2,0.9-0.5,1.1c-0.3,0.3-0.7,0.5-1.1,0.5h-6.1c-0.9,0-1.6-0.7-1.6-1.6l0,0
		c0-0.9,0.7-1.6,1.6-1.6h6.1C303.1,291.9,303.8,292.6,303.8,293.5z"/>
	<path class="st10" d="M293.1,282.8v6.1c0,0.9-0.7,1.6-1.6,1.6l0,0c-0.9,0-1.6-0.7-1.6-1.6v-6.1c0-0.9,0.7-1.6,1.6-1.6
		c0.4,0,0.8,0.2,1.1,0.5S293.1,282.4,293.1,282.8z"/>
	<path class="st10" d="M291.6,296.4L291.6,296.4c0.9,0,1.6,0.7,1.6,1.6v6.1c0,0.9-0.7,1.6-1.6,1.6c-0.4,0-0.8-0.2-1.1-0.5
		c-0.3-0.3-0.5-0.7-0.5-1.1V298C290,297.2,290.7,296.4,291.6,296.4z"/>
</g>
<path class="st10" d="M279.3,130.2c-4.5,0-8.1,3.6-8.1,8.1c0,4.5,3.6,8.1,8.1,8.1s8.1-3.6,8.1-8.1
	C287.4,133.8,283.8,130.2,279.3,130.2z M279.3,143.8c-3,0-5.5-2.5-5.5-5.5c0-3,2.5-5.5,5.5-5.5s5.5,2.5,5.5,5.5
	C284.8,141.3,282.4,143.8,279.3,143.8z"/>
<path class="st10" d="M438.5,406c-3.5,0-6.3,2.8-6.3,6.3c0,3.5,2.8,6.3,6.3,6.3c3.5,0,6.3-2.8,6.3-6.3
	C444.7,408.8,441.9,406,438.5,406z M438.5,415.7c-1.9,0-3.5-1.6-3.5-3.5c0-1.9,1.6-3.5,3.5-3.5c1.9,0,3.5,1.6,3.5,3.5
	C442,414.2,440.4,415.7,438.5,415.7z"/>
<g>
	<path class="st10" d="M447.7,58.3h6.3c0.9,0,1.6,0.7,1.6,1.6l0,0c0,0.9-0.7,1.6-1.6,1.6h-6.3c-0.9,0-1.6-0.7-1.6-1.6
		c0-0.4,0.2-0.9,0.5-1.1C446.9,58.5,447.3,58.3,447.7,58.3z"/>
	<path class="st10" d="M471.3,59.9c0,0.5-0.2,0.9-0.5,1.2c-0.3,0.3-0.7,0.5-1.1,0.5h-6.3c-0.9,0-1.6-0.7-1.6-1.6l0,0
		c0-0.9,0.7-1.6,1.6-1.6h6.3C470.5,58.3,471.2,59,471.3,59.9z"/>
	<path class="st10" d="M460.3,49v6.3c0,0.9-0.7,1.6-1.6,1.6l0,0c-0.9,0-1.6-0.7-1.6-1.6V49c0-0.9,0.7-1.6,1.6-1.6
		c0.4,0,0.9,0.2,1.1,0.5C460.1,48.1,460.3,48.5,460.3,49z"/>
	<path class="st10" d="M458.7,63L458.7,63c0.9,0,1.6,0.7,1.6,1.6v6.3c0,0.9-0.7,1.6-1.6,1.6c-0.4,0-0.9-0.2-1.1-0.5
		c-0.3-0.3-0.5-0.7-0.5-1.1v-6.3C457.1,63.7,457.8,63,458.7,63z"/>
</g>
</svg>
