<svg xmlns="http://www.w3.org/2000/svg" viewBox="0 0 749 556" width="749" height="556">
  <g transform="translate(0,556) scale(0.1,-0.1)">
    <path d="M6470 5404 c-270 -25 -637 -123 -1040 -277 -206 -79 -272 -107 -479
-209 l-183 -91 -52 17 c-310 103 -503 135 -876 143 -535 11 -925 -68 -1323
-268 -598 -300 -1020 -799 -1172 -1385 -51 -197 -70 -360 -69 -614 0 -133 5
-269 12 -312 l12 -78 -229 -227 c-419 -418 -693 -767 -854 -1088 -125 -248
-146 -435 -68 -602 78 -167 242 -243 522 -243 372 0 911 140 1458 379 52 22
101 41 108 41 8 0 37 -17 66 -39 128 -95 408 -231 619 -301 342 -113 644 -161
1028 -163 498 -1 923 92 1320 290 699 349 1108 915 1226 1698 21 140 29 510
15 675 -21 242 -70 491 -133 670 -16 47 -32 92 -34 100 -2 9 26 49 67 95 391
437 701 930 780 1237 59 231 24 370 -117 464 -97 65 -193 87 -394 89 -91 2
-185 1 -210 -1z m-320 -531 c190 -85 124 -353 -178 -733 -301 -377 -792 -859
-1282 -1256 -689 -559 -1261 -936 -1920 -1269 -488 -246 -857 -397 -1139 -467
-109 -28 -144 -32 -261 -33 -121 0 -139 2 -176 22 -95 51 -134 116 -141 237
-7 107 20 216 88 356 53 109 178 319 192 320 4 0 7 -11 7 -25 0 -48 75 -301
131 -442 44 -110 125 -274 152 -307 l24 -30 59 13 c199 44 588 197 906 357
226 113 210 86 139 234 -108 225 -157 431 -168 700 -17 443 167 853 484 1079
153 109 310 177 503 218 120 25 421 25 538 0 170 -37 294 -90 435 -184 109
-72 262 -218 342 -325 28 -37 58 -70 68 -74 25 -8 96 58 478 443 369 372 404
412 395 447 -6 26 -151 168 -266 262 -137 110 -282 205 -440 285 l-65 33 50
12 c28 6 113 28 190 47 301 76 501 106 680 103 106 -2 138 -6 175 -23z m-696
-2175 c-12 -20 -83 -107 -152 -186 l-65 -73 -13 -92 c-28 -187 -103 -374 -209
-522 -197 -277 -486 -462 -834 -535 -111 -24 -402 -36 -521 -23 l-75 9 35 18
c69 37 468 294 613 395 378 263 704 528 1032 840 105 100 191 181 193 181 2 0
0 -6 -4 -12z" fill="#001CBE" fill-rule="evenodd"/>
    <path d="M6450 5360 c-240 -25 -565 -109 -930 -242 -159 -57 -261 -98 -275
-110 -5 -4 -16 -8 -24 -8 -8 0 -103 -43 -210 -96 -108 -53 -206 -100 -217
-106 -16 -8 -47 -2 -135 26 -266 82 -483 115 -809 123 -391 9 -620 -19 -940
-117 -276 -84 -522 -214 -756 -400 -611 -485 -873 -1129 -800 -1964 l12 -139
-105 -101 c-476 -462 -886 -988 -1016 -1306 -55 -136 -68 -200 -63 -309 9
-193 78 -285 258 -347 45 -15 83 -19 205 -18 266 1 540 57 955 194 553 183
1028 403 1695 783 77 44 171 98 210 119 38 22 124 73 190 115 66 42 176 113
245 156 138 88 243 161 490 341 163 118 271 204 584 461 281 230 636 515 642
515 3 0 -10 -21 -29 -47 -19 -27 -67 -97 -106 -156 -72 -108 -114 -165 -182
-248 -33 -40 -37 -52 -43 -124 -23 -266 -163 -545 -377 -750 -219 -210 -460
-328 -789 -387 -93 -16 -478 -17 -569 0 l-64 11 -81 -48 c-293 -177 -765 -430
-985 -530 l-73 -34 68 -39 c171 -99 408 -204 591 -262 500 -156 1090 -178
1603 -60 399 93 738 255 1045 498 280 223 449 449 619 828 49 110 116 376 142
568 26 192 24 555 -5 775 -20 153 -76 404 -114 510 -14 40 -14 40 -71 43 l-57
3 44 47 c271 288 520 605 669 853 138 229 201 364 244 528 28 107 30 163 9
240 -25 97 -100 160 -232 196 -70 19 -336 28 -463 15z m-270 -429 c67 -27 93
-51 121 -109 57 -116 -23 -361 -193 -593 -203 -278 -633 -736 -1009 -1075
-287 -260 -813 -681 -1094 -875 -429 -297 -627 -419 -1011 -622 -730 -387
-1325 -607 -1638 -607 -142 0 -266 56 -323 146 -41 64 -54 117 -54 217 0 175
98 387 304 657 44 58 81 106 82 107 1 2 17 -57 35 -130 18 -72 55 -199 82
-282 53 -161 177 -431 203 -441 37 -15 679 238 950 373 50 25 91 47 93 48 2 2
-17 43 -41 91 -139 278 -199 583 -177 899 12 162 22 225 55 340 46 159 144
332 260 462 242 271 708 432 1140 394 389 -35 689 -189 911 -469 43 -55 82
-101 86 -101 14 -2 788 775 788 790 0 19 -206 210 -330 305 -127 98 -351 235
-442 270 -70 28 -71 29 -38 32 19 2 90 19 158 38 234 66 487 120 691 149 140
21 321 14 391 -14z" fill="#0051FF" fill-rule="evenodd"/>
  </g>
</svg>
